<svg xmlns="http://www.w3.org/2000/svg" viewBox="0 0 70.468 70.468">
  <defs>
    <style>
      .cls-1 {
        fill: #fff;
      }
    </style>
  </defs>
  <g id="Group_18" data-name="Group 18" transform="translate(-1701.859 -476.766)">
    <g id="lesson-presentation-keynote-report-statistics" transform="translate(1701.859 476.766)">
      <path id="Path_854" data-name="Path 854" class="cls-1" d="M37.7,3.936V1H34.766V3.936H1V6.872H3.936v38.17H1v2.936H29.585l-9.5,21.714v1.775h2.936V70.306L32.79,47.978h1.976V71.468H37.7V47.978h1.976l9.769,22.328v1.161h2.936V69.693l-9.5-21.714H71.468V45.042H68.532V6.872h2.936V3.936H37.7ZM65.6,45.042H6.872V6.872H65.6Z" transform="translate(-1 -1)"/>
      <path id="Path_855" data-name="Path 855" class="cls-1" d="M19.745,35.489A11.758,11.758,0,0,0,31.489,23.745V22.277H21.213V12H19.745a11.745,11.745,0,0,0,0,23.489ZM18.277,15.058V25.213H28.431A8.809,8.809,0,1,1,18.277,15.058Z" transform="translate(2.277 4.149)"/>
      <path id="Path_856" data-name="Path 856" class="cls-1" d="M32.213,19.745A11.758,11.758,0,0,0,20.468,8H19V21.213H32.213ZM21.936,18.277V11.058a8.831,8.831,0,0,1,7.219,7.219Z" transform="translate(7.425 2.277)"/>
      <rect id="Rectangle_938" data-name="Rectangle 938" class="cls-1" width="14.681" height="2.936" transform="translate(44.042 13.213)"/>
      <rect id="Rectangle_939" data-name="Rectangle 939" class="cls-1" width="14.681" height="2.936" transform="translate(44.042 20.553)"/>
      <rect id="Rectangle_940" data-name="Rectangle 940" class="cls-1" width="14.681" height="2.936" transform="translate(44.042 27.893)"/>
    </g>
  </g>
</svg>
